<?xml version="1.0" standalone="no"?>
<!DOCTYPE svg PUBLIC "-//W3C//DTD SVG 20010904//EN"
 "http://www.w3.org/TR/2001/REC-SVG-20010904/DTD/svg10.dtd">
<svg version="1.0" xmlns="http://www.w3.org/2000/svg"
 width="218.000000pt" height="231.000000pt" viewBox="0 0 218.000000 231.000000"
 preserveAspectRatio="xMidYMid meet">

<g transform="translate(0.000000,231.000000) scale(0.100000,-0.100000)"
fill="#000000" stroke="none">
<path d="M1010 2179 c-67 -38 -105 -129 -81 -191 l11 -28 -151 0 c-157 0 -189
-7 -189 -41 0 -23 67 -160 84 -171 6 -4 73 -8 149 -8 125 0 138 -2 135 -17 -2
-13 -22 -20 -89 -29 -121 -18 -241 -59 -275 -96 -25 -25 -29 -38 -32 -102 -6
-112 1 -121 197 -264 l168 -124 -5 -91 c-2 -51 -6 -93 -7 -95 -1 -1 -14 2 -29
7 -25 10 -26 14 -26 79 0 59 -3 72 -23 90 -44 42 -207 57 -248 23 -23 -18 -24
-26 -27 -160 -5 -207 4 -221 185 -267 53 -13 108 -24 124 -24 27 0 29 -3 29
-41 0 -29 -4 -40 -12 -36 -7 2 -80 23 -163 47 -82 23 -160 48 -171 55 -24 16
-150 248 -137 252 48 17 69 39 55 58 -5 9 -174 157 -265 234 -36 31 -45 0 -52
-195 -7 -165 -6 -182 10 -187 9 -4 25 -2 35 3 10 6 25 10 32 10 9 0 46 -70 92
-172 44 -98 89 -184 104 -198 18 -17 95 -48 231 -95 l203 -69 100 -113 c55
-62 107 -113 117 -113 9 0 64 51 123 114 l107 113 198 68 c109 38 208 75 220
82 13 9 52 83 103 196 45 100 84 184 87 187 2 2 17 -1 34 -7 61 -23 62 -20 54
181 -7 195 -16 226 -52 194 -196 -168 -259 -224 -266 -235 -9 -15 8 -43 27
-43 40 -1 37 -18 -17 -126 -31 -60 -61 -117 -69 -126 -8 -11 -80 -37 -183 -67
-93 -27 -171 -48 -172 -47 -2 1 -6 16 -9 33 -6 31 -6 31 52 42 115 22 220 61
250 92 24 25 29 39 32 98 7 118 3 124 -186 262 -92 68 -170 127 -174 133 -4 6
-8 51 -8 100 0 87 0 88 23 82 12 -3 28 -6 35 -6 7 0 12 -15 12 -39 0 -77 62
-107 189 -92 52 6 69 13 88 35 20 24 23 37 23 119 0 160 -27 183 -266 230 -91
18 -120 27 -122 40 -3 15 13 17 140 19 l143 3 42 80 c48 90 49 97 27 119 -13
13 -43 16 -169 16 l-153 0 9 35 c19 66 -25 156 -92 190 -41 22 -117 19 -159
-6z m151 -42 c18 -12 39 -34 46 -47 27 -53 8 -131 -39 -164 -21 -15 -7 -16
176 -16 l198 0 -25 -42 -25 -43 -188 -5 -189 -5 26 -20 26 -20 11 -235 c5
-129 9 -236 7 -238 -1 -2 -24 11 -49 29 l-46 33 0 297 0 297 30 12 c54 22 53
103 0 123 -23 9 -30 18 -30 39 0 35 24 37 71 5z m-43 -104 c5 -17 -26 -29 -40
-15 -6 6 -7 15 -3 22 9 14 37 9 43 -7z m-260 -135 c-3 -9 -36 -14 -105 -16
-83 -2 -102 0 -106 13 -6 13 9 15 104 15 84 0 110 -3 107 -12z m102 -287 c0
-38 0 -38 -47 -44 -111 -13 -203 -51 -180 -74 3 -3 34 -11 69 -17 61 -12 79
-23 395 -254 182 -134 337 -250 344 -258 13 -16 25 -105 16 -128 -5 -13 -11
-13 -50 0 -41 14 -49 14 -103 -5 -33 -10 -76 -22 -96 -26 -34 -6 -38 -5 -38
13 0 11 -3 27 -6 36 -4 9 4 20 23 29 25 13 34 13 88 -4 33 -10 63 -19 66 -19
13 0 17 41 5 53 -7 7 -171 129 -364 271 -236 174 -354 267 -358 282 -4 17 -15
23 -50 29 -40 6 -44 9 -44 35 0 33 18 48 90 74 56 21 164 44 208 45 31 1 32
-1 32 -38z m460 3 c124 -31 134 -42 138 -143 6 -114 0 -121 -100 -121 l-82 0
37 38 c30 31 37 45 37 79 0 22 -6 45 -12 51 -14 11 -61 24 -150 42 l-58 11 0
40 0 40 48 -7 c26 -3 90 -17 142 -30z m540 -574 l0 -121 -29 16 -29 15 -35
-63 c-19 -34 -63 -118 -98 -186 -43 -83 -72 -127 -89 -136 -14 -7 -115 -40
-225 -74 l-200 -62 -82 -82 -83 -82 0 363 c0 199 2 362 5 362 3 0 30 -18 59
-40 l54 -41 7 -169 7 -170 -35 -43 -36 -44 243 78 c134 42 253 82 264 88 12 6
53 74 96 160 42 82 81 151 88 154 7 2 -4 10 -24 17 -21 8 -38 17 -38 21 0 6
171 159 177 159 2 0 3 -54 3 -120z m-1627 26 c37 -32 67 -61 67 -65 0 -4 -16
-13 -36 -20 -29 -11 -33 -15 -21 -24 8 -7 47 -74 87 -149 39 -76 82 -146 94
-156 13 -9 55 -26 95 -36 81 -21 83 -37 5 -39 -31 -1 -67 7 -99 21 l-51 23
-119 255 c-66 140 -122 261 -124 267 -4 13 2 8 102 -77z m468 3 c16 -8 19 -22
19 -84 0 -83 9 -96 78 -110 28 -6 33 -10 28 -28 -3 -12 -6 -29 -6 -38 0 -15
-6 -15 -67 -3 -132 28 -133 29 -133 139 l0 84 -37 31 -38 32 69 -6 c38 -4 77
-11 87 -17z"/>
<path d="M1717 350 c3 -11 7 -20 8 -20 1 0 5 9 8 20 3 12 0 20 -8 20 -8 0 -11
-8 -8 -20z"/>
<path d="M1750 348 c0 -19 2 -20 10 -8 13 19 13 30 0 30 -5 0 -10 -10 -10 -22z"/>
<path d="M1780 363 c0 -5 5 -15 10 -23 7 -12 9 -10 7 8 -1 19 -17 33 -17 15z"/>
</g>
</svg>
