<?xml version="1.0" standalone="no"?>
<!DOCTYPE svg PUBLIC "-//W3C//DTD SVG 20010904//EN"
 "http://www.w3.org/TR/2001/REC-SVG-20010904/DTD/svg10.dtd">
<svg version="1.0" xmlns="http://www.w3.org/2000/svg"
 width="1200.000000pt" height="1200.000000pt" viewBox="0 0 1200.000000 1200.000000"
 preserveAspectRatio="xMidYMid meet">

<g transform="translate(0.000000,1200.000000) scale(0.100000,-0.100000)"
fill="#000000" stroke="none">
<path d="M6325 9192 c-141 -49 -247 -154 -293 -290 -13 -39 -17 -121 -22 -472
-6 -413 -7 -427 -30 -489 -50 -140 -168 -273 -296 -335 -103 -51 -154 -56
-580 -56 -364 0 -397 -1 -457 -20 -132 -41 -246 -147 -299 -278 -22 -55 -23
-67 -26 -431 -3 -316 -1 -386 13 -447 27 -121 113 -232 222 -288 108 -54 127
-56 537 -56 433 0 470 -5 604 -70 151 -75 270 -223 302 -374 8 -37 10 -192 8
-488 -3 -429 -3 -434 -27 -492 -78 -195 -219 -329 -400 -379 -20 -5 -234 -13
-476 -16 l-440 -6 -78 -37 c-128 -62 -216 -167 -252 -303 -12 -48 -15 -126
-15 -401 0 -190 5 -365 10 -395 25 -130 117 -258 229 -317 109 -59 138 -62
543 -62 232 0 387 4 420 11 87 18 158 59 228 129 73 73 112 144 129 234 14 76
15 742 1 751 -13 8 -3 86 22 163 40 125 147 248 277 316 132 69 132 69 601 75
l425 6 70 34 c92 45 176 129 218 218 l32 68 0 435 0 435 -32 65 c-56 115 -131
184 -252 232 -54 22 -71 23 -496 28 -423 6 -442 7 -501 29 -179 65 -324 231
-369 422 -22 94 -22 838 0 924 47 179 187 321 392 397 55 21 81 22 488 28 306
5 442 10 470 19 114 37 215 126 268 239 l32 67 0 435 0 435 -31 65 c-57 120
-152 203 -272 240 -59 19 -93 20 -456 20 -344 -1 -397 -3 -441 -18z"/>
</g>
</svg>
